<?xml version="1.0" encoding="UTF-8"?>
<svg xmlns="http://www.w3.org/2000/svg" viewBox="0 0 1024 1024" width="1024" height="1024">
  <!-- Cipher Chimp (top-right variant) - refined vector -->
  <g id="chimp">
    <path id="chimp-head" d="M 534 106 L 530 106 L 525 112 L 522 112 L 520 119 L 514 122 L 510 129 L 505 129 L 504 139 L 499 144 L 493 145 L 492 148 L 489 148 L 487 153 L 481 153 L 481 159 L 479 161 L 472 162 L 471 168 L 456 171 L 456 175 L 449 177 L 449 179 L 443 182 L 442 185 L 432 186 L 432 189 L 428 193 L 408 194 L 408 201 L 406 203 L 392 202 L 391 209 L 378 209 L 378 214 L 372 217 L 353 218 L 351 224 L 337 225 L 337 230 L 332 233 L 312 234 L 311 241 L 299 242 L 298 244 L 296 244 L 296 247 L 294 249 L 291 249 L 281 254 L 280 257 L 264 257 L 264 264 L 262 266 L 256 266 L 255 272 L 244 273 L 243 275 L 241 275 L 240 281 L 232 282 L 232 289 L 224 290 L 224 296 L 217 297 L 217 303 L 213 307 L 210 307 L 210 312 L 201 313 L 200 325 L 197 328 L 193 328 L 193 335 L 188 340 L 185 340 L 184 351 L 178 352 L 178 359 L 174 367 L 174 370 L 169 371 L 168 385 L 166 386 L 166 390 L 164 391 L 164 395 L 162 396 L 162 404 L 158 421 L 156 423 L 155 470 L 122 470 L 102 474 L 88 475 L 86 476 L 85 480 L 81 480 L 78 483 L 72 483 L 72 487 L 70 489 L 57 490 L 55 498 L 49 499 L 48 511 L 45 512 L 45 518 L 41 523 L 40 530 L 38 532 L 35 532 L 36 542 L 34 552 L 34 583 L 36 593 L 33 594 L 33 600 L 35 601 L 36 607 L 39 607 L 41 610 L 40 622 L 44 622 L 46 624 L 46 628 L 49 629 L 49 640 L 51 641 L 51 644 L 55 644 L 58 646 L 58 651 L 60 652 L 60 654 L 66 656 L 66 662 L 73 664 L 73 671 L 79 671 L 81 673 L 81 678 L 88 679 L 90 684 L 103 687 L 104 691 L 109 691 L 112 694 L 119 695 L 123 697 L 125 701 L 134 701 L 141 703 L 143 705 L 164 707 L 172 711 L 172 745 L 168 791 L 166 793 L 161 793 L 161 798 L 176 798 L 179 797 L 184 790 L 192 790 L 193 788 L 198 788 L 202 790 L 203 799 L 209 800 L 209 803 L 211 804 L 211 813 L 214 813 L 216 816 L 217 824 L 219 826 L 219 831 L 221 834 L 221 843 L 224 845 L 226 852 L 227 865 L 229 867 L 230 872 L 229 884 L 232 885 L 235 904 L 232 906 L 232 908 L 238 910 L 246 909 L 246 904 L 251 903 L 251 900 L 253 899 L 253 894 L 256 891 L 261 891 L 261 881 L 265 879 L 266 876 L 270 876 L 271 871 L 279 871 L 280 878 L 285 878 L 288 880 L 288 886 L 297 887 L 297 894 L 308 894 L 313 898 L 313 902 L 320 903 L 320 910 L 329 909 L 330 917 L 341 918 L 344 920 L 345 926 L 351 926 L 352 933 L 367 934 L 368 939 L 374 939 L 375 942 L 384 943 L 385 949 L 396 949 L 401 952 L 401 956 L 415 958 L 416 965 L 422 966 L 423 964 L 428 964 L 434 968 L 434 973 L 446 972 L 449 975 L 457 976 L 459 974 L 470 974 L 472 969 L 479 969 L 480 965 L 495 966 L 496 958 L 502 958 L 503 955 L 511 957 L 511 952 L 513 950 L 516 950 L 519 947 L 526 948 L 526 944 L 530 941 L 542 943 L 542 941 L 540 940 L 541 935 L 545 933 L 551 933 L 551 930 L 557 926 L 566 925 L 567 920 L 570 918 L 580 918 L 581 916 L 583 916 L 583 911 L 585 909 L 591 909 L 592 902 L 598 902 L 602 894 L 607 894 L 609 889 L 614 889 L 616 885 L 622 884 L 622 879 L 624 877 L 630 877 L 631 870 L 643 871 L 645 873 L 646 878 L 648 878 L 651 883 L 651 891 L 655 891 L 659 896 L 659 903 L 665 904 L 665 910 L 679 911 L 679 907 L 676 904 L 676 898 L 678 896 L 678 887 L 680 875 L 682 872 L 683 860 L 686 855 L 687 843 L 693 842 L 691 830 L 693 829 L 693 824 L 697 810 L 702 809 L 703 794 L 706 791 L 709 791 L 710 788 L 716 788 L 728 791 L 732 794 L 732 797 L 748 799 L 748 793 L 743 791 L 741 779 L 738 727 L 739 712 L 743 708 L 747 707 L 759 708 L 761 705 L 777 701 L 788 701 L 788 698 L 792 695 L 807 693 L 807 688 L 810 686 L 822 685 L 824 677 L 830 676 L 832 670 L 837 670 L 839 668 L 839 664 L 843 663 L 847 659 L 848 655 L 852 655 L 852 647 L 854 642 L 858 638 L 862 638 L 863 628 L 869 627 L 870 609 L 874 597 L 877 578 L 877 557 L 874 539 L 872 535 L 872 528 L 869 526 L 869 514 L 863 511 L 862 504 L 858 504 L 854 501 L 854 493 L 852 492 L 851 488 L 841 489 L 837 481 L 826 480 L 823 477 L 823 473 L 813 475 L 812 473 L 803 473 L 793 470 L 756 470 L 756 442 L 753 415 L 751 413 L 749 399 L 747 398 L 747 391 L 744 389 L 744 384 L 742 383 L 741 376 L 739 375 L 739 369 L 737 369 L 734 365 L 735 353 L 727 351 L 726 336 L 719 336 L 716 329 L 713 329 L 711 327 L 711 321 L 707 319 L 707 316 L 702 315 L 703 306 L 696 304 L 694 302 L 694 296 L 687 296 L 686 289 L 680 288 L 678 286 L 678 281 L 671 282 L 668 276 L 663 276 L 662 273 L 656 273 L 655 264 L 644 264 L 643 261 L 639 260 L 639 258 L 633 258 L 631 256 L 631 252 L 623 252 L 620 249 L 616 249 L 615 242 L 601 242 L 598 241 L 595 238 L 595 236 L 589 237 L 589 242 L 585 243 L 585 249 L 579 249 L 581 237 L 584 236 L 584 234 L 582 233 L 584 218 L 584 196 L 579 173 L 579 167 L 577 166 L 577 162 L 575 161 L 574 153 L 569 152 L 569 166 L 567 168 L 564 168 L 563 174 L 554 177 L 553 185 L 547 185 L 548 192 L 544 193 L 544 197 L 539 202 L 534 201 L 534 193 L 536 186 L 539 182 L 542 182 L 542 176 L 539 175 L 540 138 L 538 129 L 540 128 L 540 122 L 535 121 Z" fill="#000000"/>
    
  </g>
</svg>
